<svg width="20" height="20" viewBox="0 0 20 20" fill="none" xmlns="http://www.w3.org/2000/svg">
<path d="M12.9833 10C12.9833 11.65 11.65 12.9833 10 12.9833C8.35 12.9833 7.01666 11.65 7.01666 10C7.01666 8.35 8.35 7.01667 10 7.01667C11.65 7.01667 12.9833 8.35 12.9833 10Z" stroke="#53C8C1" stroke-width="1.25" stroke-linecap="round" stroke-linejoin="round"/>
<path d="M9.99999 16.8917C12.9417 16.8917 15.6833 15.1583 17.5917 12.1583C18.3417 10.9833 18.3417 9.00833 17.5917 7.83333C15.6833 4.83333 12.9417 3.1 9.99999 3.1C7.05832 3.1 4.31666 4.83333 2.40833 7.83333C1.65833 9.00833 1.65833 10.9833 2.40833 12.1583C4.31666 15.1583 7.05832 16.8917 9.99999 16.8917Z" stroke="#53C8C1" stroke-width="1.25" stroke-linecap="round" stroke-linejoin="round"/>
</svg>
